<?xml version="1.0" encoding="utf-8"?>
<!-- Generator: Adobe Illustrator 16.0.4, SVG Export Plug-In . SVG Version: 6.00 Build 0)  -->
<!DOCTYPE svg PUBLIC "-//W3C//DTD SVG 1.1//EN" "http://www.w3.org/Graphics/SVG/1.1/DTD/svg11.dtd">
<svg version="1.1" id="Layer_2" xmlns="http://www.w3.org/2000/svg" xmlns:xlink="http://www.w3.org/1999/xlink" x="0px" y="0px"
	 width="386px" height="100px" viewBox="0 550.7 386 100" enable-background="new 0 550.7 386 100" xml:space="preserve">
<g>
	
		<linearGradient id="SVGID_1_" gradientUnits="userSpaceOnUse" x1="-3.2012" y1="1235.6396" x2="-28.7248" y2="1249.7037" gradientTransform="matrix(2.5126 0 0 -2.5126 93.2437 3705.1284)">
		<stop  offset="0" style="stop-color:#E4545B"/>
		<stop  offset="0.1309" style="stop-color:#D55A67"/>
		<stop  offset="0.382" style="stop-color:#AE6B86"/>
		<stop  offset="0.7244" style="stop-color:#7086B9"/>
		<stop  offset="1" style="stop-color:#399EE5"/>
	</linearGradient>
	<polygon fill="url(#SVGID_1_)" points="41.766,552.497 0,576.571 41.766,600.646 	"/>
	
		<linearGradient id="SVGID_2_" gradientUnits="userSpaceOnUse" x1="-20.5068" y1="1235.5645" x2="-12.209" y2="1249.9368" gradientTransform="matrix(2.5126 0 0 -2.5126 93.2437 3705.1284)">
		<stop  offset="0" style="stop-color:#24425D"/>
		<stop  offset="0.0199" style="stop-color:#264C6B"/>
		<stop  offset="0.0724" style="stop-color:#2B628C"/>
		<stop  offset="0.1313" style="stop-color:#3075A8"/>
		<stop  offset="0.1973" style="stop-color:#3384BE"/>
		<stop  offset="0.2735" style="stop-color:#3690D0"/>
		<stop  offset="0.3663" style="stop-color:#3898DC"/>
		<stop  offset="0.4932" style="stop-color:#399DE3"/>
		<stop  offset="0.8105" style="stop-color:#399EE5"/>
	</linearGradient>
	<polygon fill="url(#SVGID_2_)" points="83.427,576.571 41.766,552.497 41.766,600.646 	"/>
	
		<linearGradient id="SVGID_3_" gradientUnits="userSpaceOnUse" x1="-18.4229" y1="1244.5605" x2="2.4885" y2="1230.5026" gradientTransform="matrix(2.5126 0 0 -2.5126 93.2437 3705.1284)">
		<stop  offset="0.1895" style="stop-color:#399EE5"/>
		<stop  offset="0.5068" style="stop-color:#399DE3"/>
		<stop  offset="0.6337" style="stop-color:#3898DC"/>
		<stop  offset="0.7265" style="stop-color:#3690D0"/>
		<stop  offset="0.8027" style="stop-color:#3384BE"/>
		<stop  offset="0.8687" style="stop-color:#3075A8"/>
		<stop  offset="0.9276" style="stop-color:#2B628C"/>
		<stop  offset="0.9801" style="stop-color:#264C6B"/>
		<stop  offset="1" style="stop-color:#24425D"/>
	</linearGradient>
	<polygon fill="url(#SVGID_3_)" points="83.427,624.827 83.427,576.571 41.766,600.646 	"/>
	
		<linearGradient id="SVGID_4_" gradientUnits="userSpaceOnUse" x1="4.2227" y1="1235.8818" x2="-47.8166" y2="1235.48" gradientTransform="matrix(2.5126 0 0 -2.5126 93.2437 3705.1284)">
		<stop  offset="0" style="stop-color:#E4545B"/>
		<stop  offset="0.1309" style="stop-color:#D55A67"/>
		<stop  offset="0.382" style="stop-color:#AE6B86"/>
		<stop  offset="0.7244" style="stop-color:#7086B9"/>
		<stop  offset="1" style="stop-color:#399EE5"/>
	</linearGradient>
	<polygon fill="url(#SVGID_4_)" points="0,576.571 0,624.827 41.766,600.646 	"/>
	
		<linearGradient id="SVGID_5_" gradientUnits="userSpaceOnUse" x1="-33.9707" y1="1225.9805" x2="-3.8121" y2="1225.9805" gradientTransform="matrix(2.5126 0 0 -2.5126 93.2437 3705.1284)">
		<stop  offset="0" style="stop-color:#399EE5"/>
		<stop  offset="1" style="stop-color:#346485"/>
	</linearGradient>
	<polygon fill="url(#SVGID_5_)" points="41.766,648.902 83.427,624.827 41.766,600.646 	"/>
	
		<linearGradient id="SVGID_6_" gradientUnits="userSpaceOnUse" x1="-32.6494" y1="1232.9004" x2="4.0718" y2="1212.0022" gradientTransform="matrix(2.5126 0 0 -2.5126 93.2437 3705.1284)">
		<stop  offset="0" style="stop-color:#346485"/>
		<stop  offset="1" style="stop-color:#399EE5"/>
	</linearGradient>
	<polygon fill="url(#SVGID_6_)" points="0,624.827 41.766,648.902 41.766,600.646 	"/>
	
		<linearGradient id="SVGID_7_" gradientUnits="userSpaceOnUse" x1="-44.7139" y1="1244.5713" x2="110.6517" y2="1156.1519" gradientTransform="matrix(2.5126 0 0 -2.5126 93.2437 3705.1284)">
		<stop  offset="0" style="stop-color:#346485"/>
		<stop  offset="1" style="stop-color:#399EE5"/>
	</linearGradient>
	<polygon opacity="0.2" fill="url(#SVGID_7_)" enable-background="new    " points="83.531,624.723 41.766,600.646 0,576.571 
		0,600.752 62.491,636.864 	"/>
	
		<linearGradient id="SVGID_8_" gradientUnits="userSpaceOnUse" x1="-55.3145" y1="1244.5713" x2="100.0539" y2="1156.1503" gradientTransform="matrix(-2.5126 0 0 -2.5126 -36.3961 3705.1284)">
		<stop  offset="0" style="stop-color:#346485"/>
		<stop  offset="1" style="stop-color:#399EE5"/>
	</linearGradient>
	<polygon opacity="0.2" fill="url(#SVGID_8_)" enable-background="new    " points="0,624.723 41.766,600.646 83.531,576.571 
		83.531,600.752 20.935,636.864 	"/>
	<g>
		
			<image overflow="visible" opacity="0.2" enable-background="new    " width="63" height="53" xlink:href="DE47D2ACE307C3D3.png"  transform="matrix(1.0301 0 0 1.0468 10.7578 573.5752)">
		</image>
		<g>
			<g>
				
					<linearGradient id="SVGID_9_" gradientUnits="userSpaceOnUse" x1="-25.4224" y1="1232.627" x2="-24.0241" y2="1241.1097" gradientTransform="matrix(2.5126 0 0 -2.5126 93.2437 3705.1284)">
					<stop  offset="0" style="stop-color:#FFFFFF"/>
					<stop  offset="0.327" style="stop-color:#FDFDFD"/>
					<stop  offset="0.472" style="stop-color:#F6F6F6"/>
					<stop  offset="0.581" style="stop-color:#E9E9E9"/>
					<stop  offset="0.6721" style="stop-color:#D7D7D7"/>
					<stop  offset="0.7519" style="stop-color:#C0C0C0"/>
					<stop  offset="0.8239" style="stop-color:#A3A3A3"/>
					<stop  offset="0.89" style="stop-color:#808080"/>
					<stop  offset="0.9497" style="stop-color:#5A5A5A"/>
					<stop  offset="1" style="stop-color:#333333"/>
				</linearGradient>
				<polygon fill="url(#SVGID_9_)" points="23.238,591.854 18.109,607.869 43.335,591.854 				"/>
				
					<linearGradient id="SVGID_10_" gradientUnits="userSpaceOnUse" x1="-27.8628" y1="1242.29" x2="7.3771" y2="1242.29" gradientTransform="matrix(2.5126 0 0 -2.5126 93.2437 3705.1284)">
					<stop  offset="0" style="stop-color:#FFFFFF"/>
					<stop  offset="0.1873" style="stop-color:#FDFDFD"/>
					<stop  offset="0.2547" style="stop-color:#F6F6F6"/>
					<stop  offset="0.3029" style="stop-color:#EBEAEB"/>
					<stop  offset="0.3417" style="stop-color:#DADADA"/>
					<stop  offset="0.3751" style="stop-color:#C5C4C4"/>
					<stop  offset="0.4046" style="stop-color:#AAA8A9"/>
					<stop  offset="0.4313" style="stop-color:#8A8888"/>
					<stop  offset="0.4558" style="stop-color:#656263"/>
					<stop  offset="0.4776" style="stop-color:#3D393A"/>
					<stop  offset="0.4897" style="stop-color:#231F20"/>
				</linearGradient>
				<polygon fill="url(#SVGID_10_)" points="71.075,591.854 23.238,591.854 28.262,575.734 56.001,575.734 				"/>
				
					<linearGradient id="SVGID_11_" gradientUnits="userSpaceOnUse" x1="-31.9873" y1="1229.501" x2="6.9969" y2="1229.501" gradientTransform="matrix(2.5126 0 0 -2.5126 93.2437 3705.1284)">
					<stop  offset="0" style="stop-color:#FFFFFF"/>
					<stop  offset="0.1873" style="stop-color:#FDFDFD"/>
					<stop  offset="0.2547" style="stop-color:#F6F6F6"/>
					<stop  offset="0.3029" style="stop-color:#EBEAEB"/>
					<stop  offset="0.3417" style="stop-color:#DADADA"/>
					<stop  offset="0.3751" style="stop-color:#C5C4C4"/>
					<stop  offset="0.4046" style="stop-color:#AAA8A9"/>
					<stop  offset="0.4313" style="stop-color:#8A8888"/>
					<stop  offset="0.4558" style="stop-color:#656263"/>
					<stop  offset="0.4776" style="stop-color:#3D393A"/>
					<stop  offset="0.4897" style="stop-color:#231F20"/>
				</linearGradient>
				<polygon fill="url(#SVGID_11_)" points="65.946,607.869 40.719,623.99 12.875,623.99 18.109,607.869 				"/>
				<polygon fill="#FFFFFF" points="65.946,607.869 40.719,623.99 56.001,575.734 71.075,591.854 				"/>
			</g>
		</g>
	</g>
</g>
<g>
	<path fill="#FFFFFF" d="M92.653,585.974h11.152c10.245,0,16.339,5.965,16.339,14.265v0.13c0,8.299-6.095,14.523-16.469,14.523
		H92.653V585.974z M100.693,593.106v14.782h3.242c4.798,0,8.04-2.593,8.04-7.262v-0.129c0-4.669-3.242-7.392-8.04-7.392H100.693z"/>
	<path fill="#FFFFFF" d="M131.167,585.715h7.781l12.319,29.177h-8.558l-2.075-5.187h-11.152l-2.075,5.187h-8.429L131.167,585.715z
		 M138.299,603.48l-3.242-8.17l-3.242,8.17H138.299z"/>
	<path fill="#FFFFFF" d="M153.99,585.974h8.041v21.915h14.005v7.003H153.99V585.974z"/>
	<path fill="#FFFFFF" d="M179.147,585.974h8.04v21.915h14.005v7.003h-22.045V585.974z"/>
	<path fill="#FFFFFF" d="M215.197,585.715h7.781l12.319,29.177h-8.559l-2.075-5.187h-11.152l-2.075,5.187h-8.429L215.197,585.715z
		 M222.2,603.48l-3.242-8.17l-3.242,8.17H222.2z"/>
	<path fill="#FFFFFF" d="M235.427,610.612l4.409-5.316c2.853,2.334,6.095,3.502,9.337,3.502c2.205,0,3.372-0.778,3.372-1.945v-0.131
		c0-1.296-0.908-1.815-4.928-2.853c-6.224-1.426-10.893-3.111-10.893-9.077v-0.13c0-5.316,4.279-9.207,11.152-9.207
		c4.928,0,8.818,1.297,11.93,3.891l-4.02,5.705c-2.593-1.944-5.576-2.853-8.17-2.853c-1.945,0-2.853,0.778-2.853,1.815v0.13
		c0,1.297,1.037,1.945,5.057,2.853c6.614,1.427,10.764,3.631,10.764,9.078v0.13c0,5.964-4.669,9.466-11.671,9.466
		C243.856,615.41,239.058,613.855,235.427,610.612z"/>
</g>
<g>
	<path fill="#FFFFFF" d="M289.631,614.892l-20.359-25.676v25.676h-2.075v-28.918h2.075l19.97,25.158v-25.158h2.075v28.918H289.631z"
		/>
	<path fill="#FFFFFF" d="M297.283,614.892v-28.918h20.619v1.945h-18.414v11.412h16.599v1.945h-16.599v11.67h18.673v1.945H297.283z"
		/>
	<path fill="#FFFFFF" d="M353.303,615.15h-1.686l-8.429-25.156l-8.429,25.156h-1.946l-10.503-29.177h2.334l9.077,25.677
		l8.429-25.806h1.686l8.429,25.806l9.078-25.677h2.205L353.303,615.15z"/>
	<path fill="#FFFFFF" d="M377.034,615.281c-4.668,0-8.169-1.557-11.671-4.669l1.426-1.556c3.242,2.982,6.095,4.279,10.374,4.279
		c4.28,0,7.263-2.464,7.263-5.706v-0.13c0-3.111-1.557-4.798-8.17-6.095c-7.002-1.426-9.726-3.761-9.726-8.169v-0.13
		c0-4.28,3.891-7.651,9.337-7.651c4.149,0,7.002,1.168,9.855,3.502l-1.427,1.686c-2.723-2.335-5.446-3.242-8.688-3.242
		c-4.279,0-7.002,2.464-7.002,5.446v0.13c0,3.112,1.556,4.928,8.429,6.354c6.743,1.427,9.466,3.76,9.466,7.91v0.129
		C386.5,612.039,382.609,615.281,377.034,615.281z"/>
</g>
</svg>
