<?xml version="1.0" encoding="utf-8"?>
<!-- Generator: Adobe Illustrator 19.2.1, SVG Export Plug-In . SVG Version: 6.00 Build 0)  -->
<svg version="1.1" id="Layer_1" xmlns="http://www.w3.org/2000/svg" xmlns:xlink="http://www.w3.org/1999/xlink" x="0px" y="0px"
	 viewBox="0 0 319 92.8" style="enable-background:new 0 0 319 92.8;" xml:space="preserve">
<style type="text/css">
	.st0{fill:url(#SVGID_1_);}
	.st1{fill:url(#SVGID_2_);}
	.st2{fill:url(#SVGID_3_);}
	.st3{fill:url(#SVGID_4_);}
	.st4{fill:url(#SVGID_5_);}
	.st5{fill:url(#SVGID_6_);}
	.st6{opacity:0.2;fill:url(#SVGID_7_);enable-background:new    ;}
	.st7{opacity:0.2;fill:url(#SVGID_8_);enable-background:new    ;}
	.st8{fill:url(#SVGID_9_);}
	.st9{fill:url(#SVGID_10_);}
	.st10{fill:url(#SVGID_11_);}
	.st11{fill:#FFFFFF;}
	.st12{fill:#333333;}
</style>
<g>
	<g id="Layer_2">
		
			<linearGradient id="SVGID_1_" gradientUnits="userSpaceOnUse" x1="82.0286" y1="47.7375" x2="20.2686" y2="81.7575" gradientTransform="matrix(1 0 0 -1 0 94)">
			<stop  offset="0" style="stop-color:#E4545B"/>
			<stop  offset="0.13" style="stop-color:#D55A67"/>
			<stop  offset="0.38" style="stop-color:#AE6B86"/>
			<stop  offset="0.72" style="stop-color:#7086B9"/>
			<stop  offset="1" style="stop-color:#399EE5"/>
		</linearGradient>
		<polygon class="st0" points="40.2,0 0,23.2 40.2,46.4 		"/>
		
			<linearGradient id="SVGID_2_" gradientUnits="userSpaceOnUse" x1="40.17" y1="47.59" x2="60.2727" y2="82.4046" gradientTransform="matrix(1 0 0 -1 0 94)">
			<stop  offset="0" style="stop-color:#24425D"/>
			<stop  offset="2.000000e-02" style="stop-color:#264C6B"/>
			<stop  offset="7.000000e-02" style="stop-color:#2B628C"/>
			<stop  offset="0.13" style="stop-color:#3075A8"/>
			<stop  offset="0.2" style="stop-color:#3384BE"/>
			<stop  offset="0.27" style="stop-color:#3690D0"/>
			<stop  offset="0.37" style="stop-color:#3898DC"/>
			<stop  offset="0.49" style="stop-color:#399DE3"/>
			<stop  offset="0.81" style="stop-color:#399EE5"/>
		</linearGradient>
		<polygon class="st1" points="80.4,23.2 40.2,0 40.2,46.4 		"/>
		
			<linearGradient id="SVGID_3_" gradientUnits="userSpaceOnUse" x1="45.1996" y1="69.3293" x2="95.7896" y2="35.3093" gradientTransform="matrix(1 0 0 -1 0 94)">
			<stop  offset="0.19" style="stop-color:#399EE5"/>
			<stop  offset="0.51" style="stop-color:#399DE3"/>
			<stop  offset="0.63" style="stop-color:#3898DC"/>
			<stop  offset="0.73" style="stop-color:#3690D0"/>
			<stop  offset="0.8" style="stop-color:#3384BE"/>
			<stop  offset="0.87" style="stop-color:#3075A8"/>
			<stop  offset="0.93" style="stop-color:#2B628C"/>
			<stop  offset="0.98" style="stop-color:#264C6B"/>
			<stop  offset="1" style="stop-color:#24425D"/>
		</linearGradient>
		<polygon class="st2" points="80.4,69.6 80.4,23.2 40.2,46.4 		"/>
		
			<linearGradient id="SVGID_4_" gradientUnits="userSpaceOnUse" x1="100.01" y1="48.3656" x2="-25.9" y2="47.3956" gradientTransform="matrix(1 0 0 -1 0 94)">
			<stop  offset="0" style="stop-color:#E4545B"/>
			<stop  offset="0.13" style="stop-color:#D55A67"/>
			<stop  offset="0.38" style="stop-color:#AE6B86"/>
			<stop  offset="0.72" style="stop-color:#7086B9"/>
			<stop  offset="1" style="stop-color:#399EE5"/>
		</linearGradient>
		<polygon class="st3" points="0,23.2 0,69.6 40.2,46.4 		"/>
		
			<linearGradient id="SVGID_5_" gradientUnits="userSpaceOnUse" x1="7.6" y1="24.385" x2="80.57" y2="24.385" gradientTransform="matrix(1 0 0 -1 0 94)">
			<stop  offset="0" style="stop-color:#399EE5"/>
			<stop  offset="1" style="stop-color:#346485"/>
		</linearGradient>
		<polygon class="st4" points="40.2,92.8 80.4,69.6 40.2,46.4 		"/>
		
			<linearGradient id="SVGID_6_" gradientUnits="userSpaceOnUse" x1="10.7797" y1="41.1095" x2="99.6297" y2="-9.4505" gradientTransform="matrix(1 0 0 -1 0 94)">
			<stop  offset="0" style="stop-color:#346485"/>
			<stop  offset="1" style="stop-color:#399EE5"/>
		</linearGradient>
		<polygon class="st5" points="0,69.6 40.2,92.8 40.2,46.4 		"/>
		
			<linearGradient id="SVGID_7_" gradientUnits="userSpaceOnUse" x1="-18.4001" y1="69.3798" x2="357.5099" y2="-144.5602" gradientTransform="matrix(1 0 0 -1 0 94)">
			<stop  offset="0" style="stop-color:#346485"/>
			<stop  offset="1" style="stop-color:#399EE5"/>
		</linearGradient>
		<polygon class="st6" points="80.4,69.6 40.2,46.4 0,23.2 0,46.5 60.2,81.3 		"/>
		
			<linearGradient id="SVGID_8_" gradientUnits="userSpaceOnUse" x1="-1220.6901" y1="69.3798" x2="-844.7801" y2="-144.5602" gradientTransform="matrix(-1 0 0 -1 -1121.9 94)">
			<stop  offset="0" style="stop-color:#346485"/>
			<stop  offset="1" style="stop-color:#399EE5"/>
		</linearGradient>
		<polygon class="st7" points="0,69.6 40.2,46.4 80.4,23.2 80.4,46.5 20.2,81.3 		"/>
		
			<image style="overflow:visible;opacity:0.2;enable-background:new    ;" width="63" height="54" xlink:href="7AC5A1A1D353081B.png"  transform="matrix(1 0 0 0.9815 10.11 20)">
		</image>
		
			<linearGradient id="SVGID_9_" gradientUnits="userSpaceOnUse" x1="28.281" y1="40.4798" x2="31.661" y2="61.0098" gradientTransform="matrix(1 0 0 -1 0 94)">
			<stop  offset="0" style="stop-color:#FFFFFF"/>
			<stop  offset="0.33" style="stop-color:#FDFDFD"/>
			<stop  offset="0.47" style="stop-color:#F6F6F6"/>
			<stop  offset="0.58" style="stop-color:#E9E9E9"/>
			<stop  offset="0.67" style="stop-color:#D7D7D7"/>
			<stop  offset="0.75" style="stop-color:#C0C0C0"/>
			<stop  offset="0.82" style="stop-color:#A3A3A3"/>
			<stop  offset="0.89" style="stop-color:#808080"/>
			<stop  offset="0.95" style="stop-color:#5A5A5A"/>
			<stop  offset="1" style="stop-color:#333333"/>
		</linearGradient>
		<polygon class="st8" points="22.4,37.8 17.5,53.3 41.7,37.8 		"/>
		
			<linearGradient id="SVGID_10_" gradientUnits="userSpaceOnUse" x1="22.35" y1="63.905" x2="107.61" y2="63.905" gradientTransform="matrix(1 0 0 -1 0 94)">
			<stop  offset="0" style="stop-color:#FFFFFF"/>
			<stop  offset="0.19" style="stop-color:#FDFDFD"/>
			<stop  offset="0.25" style="stop-color:#F6F6F6"/>
			<stop  offset="0.3" style="stop-color:#EBEBEB"/>
			<stop  offset="0.34" style="stop-color:#DADADA"/>
			<stop  offset="0.38" style="stop-color:#C5C4C4"/>
			<stop  offset="0.4" style="stop-color:#AAA8A9"/>
			<stop  offset="0.43" style="stop-color:#8A8888"/>
			<stop  offset="0.46" style="stop-color:#656263"/>
			<stop  offset="0.48" style="stop-color:#3D393A"/>
			<stop  offset="0.49" style="stop-color:#231F20"/>
		</linearGradient>
		<polygon class="st9" points="68.5,37.8 22.4,37.8 27.2,22.3 53.9,22.3 68.5,37.8 		"/>
		
			<linearGradient id="SVGID_11_" gradientUnits="userSpaceOnUse" x1="12.44" y1="32.895" x2="106.76" y2="32.895" gradientTransform="matrix(1 0 0 -1 0 94)">
			<stop  offset="0" style="stop-color:#FFFFFF"/>
			<stop  offset="0.19" style="stop-color:#FDFDFD"/>
			<stop  offset="0.25" style="stop-color:#F6F6F6"/>
			<stop  offset="0.3" style="stop-color:#EBEBEB"/>
			<stop  offset="0.34" style="stop-color:#DADADA"/>
			<stop  offset="0.38" style="stop-color:#C5C4C4"/>
			<stop  offset="0.4" style="stop-color:#AAA8A9"/>
			<stop  offset="0.43" style="stop-color:#8A8888"/>
			<stop  offset="0.46" style="stop-color:#656263"/>
			<stop  offset="0.48" style="stop-color:#3D393A"/>
			<stop  offset="0.49" style="stop-color:#231F20"/>
		</linearGradient>
		<polygon class="st10" points="63.5,53.3 39.2,68.9 12.4,68.9 17.4,53.3 63.5,53.3 		"/>
		<polygon class="st11" points="63.5,53.3 39.2,68.9 53.9,22.3 68.5,37.8 		"/>
		<path class="st12" d="M92.1,34.2h8.6c8,0,12.6,4.6,12.6,11.1v0.1c0,6.4-4.7,11.2-12.7,11.2h-8.5L92.1,34.2L92.1,34.2z M98.3,39.7
			v11.4h2.5c3.7,0,6.2-2,6.2-5.7v-0.1c0-3.6-2.5-5.7-6.2-5.7H98.3z"/>
		<path class="st12" d="M121.8,34h6l9.5,22.5h-6.6l-1.6-4h-8.6l-1.6,4h-6.5L121.8,34z M127.2,47.7l-2.5-6.3l-2.5,6.3H127.2
			L127.2,47.7z"/>
		<path class="st12" d="M139.4,34.2h6.2v16.9h10.8v5.4h-17V34.2z"/>
		<path class="st12" d="M158.9,34.2h6.2v16.9h10.8v5.4h-17L158.9,34.2L158.9,34.2z"/>
		<path class="st12" d="M186.7,34h6l9.5,22.5h-6.6l-1.6-4h-8.6l-1.6,4h-6.5L186.7,34z M192.1,47.7l-2.5-6.3l-2.5,6.3H192.1
			L192.1,47.7z"/>
		<path class="st12" d="M202.3,53.2l3.5-4.1c2,1.7,4.6,2.6,7.2,2.7c1.7,0,2.6-0.6,2.6-1.5v-0.1c0-1-0.7-1.4-3.8-2.2
			c-4.8-1.1-8.4-2.4-8.4-7v0c0-4.2,3.3-7.2,8.7-7.2c3.3-0.1,6.6,0.9,9.2,3l-3.1,4.4c-1.8-1.4-4-2.1-6.3-2.2c-1.5,0-2.2,0.6-2.2,1.4
			v0.1c0,1,0.8,1.5,3.9,2.2c5.1,1.1,8.3,2.8,8.3,7v0.1c0,4.6-3.6,7.3-9,7.3C209,57.1,205.2,55.7,202.3,53.2z"/>
		<path class="st12" d="M244.2,56.5l-15.8-19.8v19.8h-1.6V34.2h1.6l15.4,19.4V34.2h1.6v22.3H244.2L244.2,56.5z"/>
		<path class="st12" d="M250.1,56.5V34.2H266v1.5h-14.2v8.8h12.8V46h-12.8v9h14.4v1.5H250.1L250.1,56.5z"/>
		<path class="st12" d="M293.3,56.7H292l-6.5-19.4l-6.5,19.4h-1.3l-8.1-22.5h1.9l7,19.9l6.5-19.9h1.3l6.5,19.9l7-19.9h1.8
			L293.3,56.7z"/>
		<path class="st12" d="M311.6,56.8c-3.4,0-6.6-1.2-9-3.6l1.1-1.3c2.1,2.2,5,3.4,8,3.3c3.4,0,5.6-1.9,5.6-4.4v0
			c0-2.4-1.2-3.7-6.3-4.8c-5.4-1.1-7.5-2.9-7.5-6.3v-0.1c0-3.3,3-5.9,7.2-5.9c2.8-0.1,5.5,0.9,7.7,2.7l-1,1.3
			c-1.8-1.7-4.2-2.6-6.7-2.5c-3.3,0-5.5,1.9-5.5,4.2v0.1c0,2.4,1.2,3.8,6.5,4.9s7.3,2.9,7.3,6.2v0.1C319,54.4,315.9,56.8,311.6,56.8
			z"/>
	</g>
</g>
</svg>
